<?xml version="1.0" encoding="iso-8859-1"?>
<!-- Generator: Adobe Illustrator 19.0.0, SVG Export Plug-In . SVG Version: 6.00 Build 0)  -->
<svg version="1.1" id="Layer_1" xmlns="http://www.w3.org/2000/svg" xmlns:xlink="http://www.w3.org/1999/xlink" x="0px" y="0px"
	 viewBox="0 0 508.096 508.096" style="enable-background:new 0 0 508.096 508.096;" xml:space="preserve">
<g>
	<g>
		<path d="M501.925,126.048l-120-120c-4-4-8-6-12.4-6c-6.8,0-12,4.8-14.4,12.8l-5.6,18.8c-2.8,10-11.6,24.8-19.2,32.4l-97.6,97.2
			c-7.6,7.6-22,16.4-32,19.6l-56.4,18.4c-6.4,2-10.8,6.4-12,11.6c-1.2,5.2,0.8,10.8,5.6,15.6l56,56.4l-120.8,120.8l-0.4,0.4
			l-72,97.6c-1.2,1.6-0.8,3.6,0.4,5.2c0.8,0.8,1.6,1.2,2.8,1.2c0.8,0,1.6-0.4,2.4-0.8l97.6-72l0.4-0.4l120.8-120.8l56.4,56.8
			c4,4,8.4,6.4,12.4,6.4c6.8,0,12-5.2,14.8-12.8l18.4-56.8c3.2-10,12.4-24.8,19.6-32.4l97.6-97.6c7.6-7.6,22-16.4,32.4-19.2
			l18.8-5.6c6.4-2,10.8-6,12.4-11.2C508.725,136.848,506.725,130.848,501.925,126.048z"/>
	</g>
</g>
<g>
</g>
<g>
</g>
<g>
</g>
<g>
</g>
<g>
</g>
<g>
</g>
<g>
</g>
<g>
</g>
<g>
</g>
<g>
</g>
<g>
</g>
<g>
</g>
<g>
</g>
<g>
</g>
<g>
</g>
</svg>
